<svg width="134" height="37" viewBox="0 0 134 37" fill="none" xmlns="http://www.w3.org/2000/svg">
<g clip-path="url(#clip0_1_1111)">
<path d="M18.5015 0C14.8423 0 11.2652 1.08009 8.22264 3.10371C5.18011 5.12731 2.80868 8.00353 1.40835 11.3687C0.00801569 14.7338 -0.358374 18.4367 0.355509 22.0091C1.0694 25.5816 2.83151 28.863 5.41897 31.4384C8.00645 34.014 11.3032 35.768 14.8921 36.4788C18.481 37.1893 22.201 36.8246 25.5818 35.4309C28.9626 34.0368 31.8518 31.6763 33.885 28.6478C35.918 25.6193 37.003 22.0587 37.003 18.4163C37.003 13.532 35.0538 8.84771 31.5841 5.39401C28.1143 1.94028 23.4085 0 18.5015 0ZM29.8666 21.1077C29.8666 21.476 28.1962 21.5286 28.1962 21.897C28.1962 22.2653 29.8483 22.7651 29.8483 23.273C29.8483 23.8938 26.4439 23.9858 26.4439 24.6068C26.4439 25.2699 29.0261 25.0645 29.0261 25.7828C29.0261 26.63 22.5402 26.2353 22.5402 27.1167C22.5402 27.4533 23.3702 27.5929 24.4089 27.7034C24.9798 27.7664 24.8554 28.0453 24.5305 28.2296C22.7147 29.3323 20.6287 29.9159 18.5015 29.9159C16.3744 29.9159 14.2884 29.3323 12.4726 28.2296C12.1502 28.0323 12.0233 27.7534 12.5942 27.7034C13.633 27.5929 14.4656 27.4403 14.4656 27.1167C14.4656 26.2353 7.97679 26.63 7.97679 25.7828C7.97679 25.0645 10.5617 25.2566 10.5617 24.6068C10.5617 23.9858 7.15484 23.8938 7.15484 23.273C7.15484 22.7651 8.80942 22.2732 8.80942 21.897C8.80942 21.5207 7.13633 21.4786 7.13633 21.1077C7.13633 20.7367 8.35745 20.4973 8.35745 20.2342C8.35745 19.737 6.93808 20.642 6.93808 18.4163C6.93808 15.3636 8.15642 12.4359 10.325 10.2774C12.4936 8.11878 15.4347 6.9061 18.5015 6.9061C21.5683 6.9061 24.5096 8.11878 26.6782 10.2774C28.8467 12.4359 30.0649 15.3636 30.0649 18.4163C30.0649 20.642 28.6457 19.7317 28.6457 20.2342C28.6457 20.4973 29.8666 20.7104 29.8666 21.1077Z" fill="url(#paint0_linear_1_1111)"/>
<path d="M53.0211 27.3569C54.1771 27.3569 55.2101 27.1628 56.1203 26.7745C57.0452 26.3863 57.8254 25.8756 58.4612 25.2429C59.0968 24.5957 59.552 23.8911 59.8264 23.1287L57.1824 21.899C56.8644 22.7044 56.3445 23.3733 55.6219 23.9052C54.9139 24.423 54.047 24.682 53.0211 24.682C52.0097 24.682 51.1212 24.4447 50.3553 23.9701C49.5896 23.4955 48.9899 22.8411 48.5564 22.0069C48.123 21.1583 47.9064 20.1731 47.9064 19.0513C47.9064 17.9295 48.123 16.9515 48.5564 16.1173C48.9899 15.2688 49.5896 14.6144 50.3553 14.1542C51.1212 13.6796 52.0097 13.4423 53.0211 13.4423C54.047 13.4423 54.9139 13.7083 55.6219 14.2404C56.3445 14.7582 56.8644 15.4198 57.1824 16.2252L59.8264 14.9955C59.552 14.2333 59.0968 13.5357 58.4612 12.9029C57.8254 12.2557 57.0452 11.7379 56.1203 11.3496C55.2101 10.9613 54.1771 10.7672 53.0211 10.7672C51.8654 10.7672 50.7961 10.9757 49.8136 11.3928C48.8311 11.7955 47.9784 12.3708 47.2561 13.1186C46.5336 13.8521 45.97 14.7295 45.5655 15.7506C45.161 16.7573 44.9586 17.8576 44.9586 19.0513C44.9586 20.245 45.161 21.3525 45.5655 22.3736C45.97 23.3804 46.5336 24.2576 47.2561 25.0056C47.9784 25.7534 48.8311 26.336 49.8136 26.7531C50.7961 27.1557 51.8654 27.3569 53.0211 27.3569Z" fill="white"/>
<path d="M61.9812 27.0982H64.8204V10.7672H61.9812V27.0982Z" fill="white"/>
<path d="M71.0179 27.3569C72.5495 27.3569 73.7776 26.8538 74.7023 25.847V27.0981H77.3898V19.2886C77.3898 18.4688 77.1803 17.7425 76.7614 17.1097C76.3422 16.4769 75.7644 15.9879 75.0274 15.6427C74.3051 15.2831 73.4598 15.1034 72.4917 15.1034C71.3068 15.1034 70.252 15.3838 69.3273 15.9447C68.4027 16.5056 67.7668 17.2463 67.4201 18.1668L69.7392 19.2886C69.9558 18.7564 70.2954 18.3322 70.7578 18.0158C71.2201 17.685 71.7621 17.5196 72.3832 17.5196C73.0335 17.5196 73.5536 17.6922 73.9437 18.0373C74.3482 18.3681 74.5506 18.7852 74.5506 19.2886V19.6769L71.0395 20.2378C69.6525 20.4679 68.6266 20.9066 67.9619 21.5538C67.2974 22.201 66.9649 23.0135 66.9649 23.9915C66.9649 25.0271 67.3334 25.847 68.0704 26.4509C68.8072 27.055 69.7897 27.3569 71.0179 27.3569ZM69.9124 23.8837C69.9124 23.064 70.4689 22.5462 71.5813 22.3304L74.5506 21.8343V22.3089C74.5506 23.1143 74.2688 23.7974 73.7053 24.3583C73.1562 24.9193 72.4339 25.1997 71.5381 25.1997C71.0613 25.1997 70.671 25.0846 70.3677 24.8546C70.0643 24.61 69.9124 24.2864 69.9124 23.8837Z" fill="white"/>
<path d="M80.0139 27.0982H82.8531V20.5614C82.8531 19.6698 83.0988 18.9794 83.5901 18.4904C84.0958 17.987 84.7458 17.7353 85.5406 17.7353H86.5592V15.2328H85.8658C85.1432 15.2328 84.5074 15.3623 83.9584 15.6212C83.4095 15.88 82.9832 16.3475 82.6796 17.0234V15.3623H80.0139V27.0982Z" fill="white"/>
<path d="M88.1201 14.0463H90.9594V11.026H88.1201V14.0463ZM88.1201 27.0982H90.9594V15.3623H88.1201V27.0982Z" fill="white"/>
<path d="M98.9558 27.2277C99.4326 27.2277 99.9023 27.1916 100.365 27.1196V24.682C100.09 24.7251 99.8371 24.7466 99.6061 24.7466C98.9124 24.7466 98.4067 24.5886 98.0889 24.272C97.7709 23.9557 97.6121 23.5025 97.6121 22.9128V17.8863H100.321V15.3623H97.6121V12.6872H94.7729V13.5933C94.7729 14.1685 94.6139 14.6072 94.2961 14.9092C93.9783 15.2112 93.5302 15.3623 92.9524 15.3623H92.7356V17.8863H94.7729V23.064C94.7729 24.3727 95.1341 25.3939 95.8566 26.1273C96.5934 26.8609 97.6266 27.2277 98.9558 27.2277Z" fill="white"/>
<path d="M103.964 31.8659C105.077 31.8659 106.001 31.5494 106.738 30.9167C107.49 30.2982 108.089 29.421 108.537 28.2847L113.674 15.3623H110.596L107.562 23.4523L104.506 15.3623H101.45L106.11 27.0982L105.85 27.7237C105.619 28.2127 105.351 28.6083 105.048 28.9103C104.759 29.2124 104.289 29.3634 103.639 29.3634C103.408 29.3634 103.162 29.3417 102.902 29.2988C102.642 29.27 102.411 29.2268 102.209 29.1693V31.5423C102.454 31.6574 102.729 31.7364 103.032 31.7796C103.336 31.8371 103.646 31.8659 103.964 31.8659Z" fill="white"/>
<path d="M121.691 27.3569C122.934 27.3569 124.032 27.0982 124.986 26.5804C125.954 26.0626 126.712 25.3507 127.261 24.4447C127.811 23.5386 128.085 22.5102 128.085 21.3596V11.026H125.137V21.2086C125.137 21.8846 124.986 22.4887 124.682 23.0209C124.393 23.5386 123.989 23.9484 123.469 24.2505C122.963 24.5381 122.37 24.682 121.691 24.682C121.027 24.682 120.434 24.5381 119.914 24.2505C119.394 23.9484 118.982 23.5386 118.679 23.0209C118.39 22.4887 118.245 21.8846 118.245 21.2086V11.026H115.298V21.3596C115.298 22.5102 115.572 23.5386 116.122 24.4447C116.67 25.3507 117.422 26.0626 118.375 26.5804C119.343 27.0982 120.449 27.3569 121.691 27.3569Z" fill="white"/>
<path d="M131.028 27.0982H133.975V11.026H131.028V27.0982Z" fill="white"/>
</g>
<defs>
<linearGradient id="paint0_linear_1_1111" x1="0" y1="0" x2="41.482" y2="6.0322" gradientUnits="userSpaceOnUse">
<stop stop-color="#6DDCFF"/>
<stop offset="1" stop-color="#7F60F9"/>
</linearGradient>
<clipPath id="clip0_1_1111">
<rect width="134" height="37" fill="white"/>
</clipPath>
</defs>
</svg>
