<svg width="112" height="22" viewBox="0 0 112 22" fill="none" xmlns="http://www.w3.org/2000/svg">
<path d="M9.70706 4.21267C10.0282 3.22436 11.4264 3.22436 11.7475 4.21267L12.8949 7.74387C13.0385 8.18586 13.4504 8.48511 13.9151 8.48511H17.628C18.6672 8.48511 19.0993 9.81488 18.2585 10.4257L15.2547 12.6081C14.8787 12.8813 14.7214 13.3654 14.865 13.8074L16.0124 17.3386C16.3335 18.327 15.2023 19.1488 14.3616 18.538L11.3578 16.3556C10.9818 16.0824 10.4727 16.0824 10.0967 16.3556L7.09293 18.538C6.25222 19.1488 5.12105 18.327 5.44217 17.3386L6.58953 13.8074C6.73314 13.3654 6.57581 12.8813 6.19984 12.6081L3.19602 10.4257C2.35531 9.81488 2.78738 8.48511 3.82655 8.48511H7.53948C8.00421 8.48511 8.41609 8.18586 8.5597 7.74387L9.70706 4.21267Z" fill="url(#paint0_linear_1_1096)"/>
<path d="M32.1616 4.21267C32.4827 3.22436 33.8809 3.22436 34.202 4.21267L35.3494 7.74387C35.493 8.18586 35.9049 8.48511 36.3696 8.48511H40.0825C41.1217 8.48511 41.5538 9.81488 40.7131 10.4257L37.7093 12.6081C37.3333 12.8813 37.176 13.3654 37.3196 13.8074L38.4669 17.3386C38.788 18.327 37.6569 19.1488 36.8162 18.538L33.8123 16.3556C33.4364 16.0824 32.9273 16.0824 32.5513 16.3556L29.5475 18.538C28.7067 19.1488 27.5756 18.327 27.8967 17.3386L29.0441 13.8074C29.1877 13.3654 29.0303 12.8813 28.6544 12.6081L25.6505 10.4257C24.8098 9.81488 25.2419 8.48511 26.2811 8.48511H29.994C30.4587 8.48511 30.8706 8.18586 31.0142 7.74387L32.1616 4.21267Z" fill="url(#paint1_linear_1_1096)"/>
<path d="M54.6161 4.21267C54.9372 3.22436 56.3354 3.22436 56.6566 4.21267L57.8039 7.74387C57.9475 8.18586 58.3594 8.48511 58.8241 8.48511H62.5371C63.5762 8.48511 64.0083 9.81488 63.1676 10.4257L60.1638 12.6081C59.7878 12.8813 59.6305 13.3654 59.7741 13.8074L60.9214 17.3386C61.2426 18.327 60.1114 19.1488 59.2707 18.538L56.2669 16.3556C55.8909 16.0824 55.3818 16.0824 55.0058 16.3556L52.002 18.538C51.1613 19.1488 50.0301 18.327 50.3512 17.3386L51.4986 13.8074C51.6422 13.3654 51.4849 12.8813 51.1089 12.6081L48.1051 10.4257C47.2644 9.81488 47.6964 8.48511 48.7356 8.48511H52.4485C52.9133 8.48511 53.3251 8.18586 53.4688 7.74387L54.6161 4.21267Z" fill="url(#paint2_linear_1_1096)"/>
<path d="M77.0707 4.21267C77.3918 3.22436 78.79 3.22436 79.1112 4.21267L80.2585 7.74387C80.4021 8.18586 80.814 8.48511 81.2787 8.48511H84.9917C86.0308 8.48511 86.4629 9.81488 85.6222 10.4257L82.6184 12.6081C82.2424 12.8813 82.0851 13.3654 82.2287 13.8074L83.376 17.3386C83.6972 18.327 82.566 19.1488 81.7253 18.538L78.7215 16.3556C78.3455 16.0824 77.8364 16.0824 77.4604 16.3556L74.4566 18.538C73.6159 19.1488 72.4847 18.327 72.8058 17.3386L73.9532 13.8074C74.0968 13.3654 73.9395 12.8813 73.5635 12.6081L70.5597 10.4257C69.719 9.81488 70.151 8.48511 71.1902 8.48511H74.9031C75.3679 8.48511 75.7797 8.18586 75.9233 7.74387L77.0707 4.21267Z" fill="url(#paint3_linear_1_1096)"/>
<path d="M99.5253 4.21267C99.8464 3.22436 101.245 3.22436 101.566 4.21267L102.713 7.74387C102.857 8.18586 103.269 8.48511 103.733 8.48511H107.446C108.485 8.48511 108.917 9.81488 108.077 10.4257L105.073 12.6081C104.697 12.8813 104.54 13.3654 104.683 13.8074L105.831 17.3386C106.152 18.327 105.021 19.1488 104.18 18.538L101.176 16.3556C100.8 16.0824 100.291 16.0824 99.915 16.3556L96.9112 18.538C96.0705 19.1488 94.9393 18.327 95.2604 17.3386L96.4078 13.8074C96.5514 13.3654 96.3941 12.8813 96.0181 12.6081L93.0143 10.4257C92.1735 9.81488 92.6056 8.48511 93.6448 8.48511H97.3577C97.8224 8.48511 98.2343 8.18586 98.3779 7.74387L99.5253 4.21267Z" fill="url(#paint4_linear_1_1096)"/>
<defs>
<linearGradient id="paint0_linear_1_1096" x1="2.75177" y1="3.47144" x2="20.6039" y2="6.16962" gradientUnits="userSpaceOnUse">
<stop stop-color="#6DDCFF"/>
<stop offset="1" stop-color="#7F60F9"/>
</linearGradient>
<linearGradient id="paint1_linear_1_1096" x1="25.2063" y1="3.47144" x2="43.0584" y2="6.16962" gradientUnits="userSpaceOnUse">
<stop stop-color="#6DDCFF"/>
<stop offset="1" stop-color="#7F60F9"/>
</linearGradient>
<linearGradient id="paint2_linear_1_1096" x1="47.6608" y1="3.47144" x2="65.5129" y2="6.16962" gradientUnits="userSpaceOnUse">
<stop stop-color="#6DDCFF"/>
<stop offset="1" stop-color="#7F60F9"/>
</linearGradient>
<linearGradient id="paint3_linear_1_1096" x1="70.1154" y1="3.47144" x2="87.9675" y2="6.16962" gradientUnits="userSpaceOnUse">
<stop stop-color="#6DDCFF"/>
<stop offset="1" stop-color="#7F60F9"/>
</linearGradient>
<linearGradient id="paint4_linear_1_1096" x1="92.57" y1="3.47144" x2="110.422" y2="6.16962" gradientUnits="userSpaceOnUse">
<stop stop-color="#6DDCFF"/>
<stop offset="1" stop-color="#7F60F9"/>
</linearGradient>
</defs>
</svg>
